<?xml version="1.0" encoding="UTF-8"?>
<svg id="Capa_1" data-name="Capa 1" xmlns="http://www.w3.org/2000/svg" xmlns:xlink="http://www.w3.org/1999/xlink" viewBox="0 0 2276.08 1164.45">
  <defs>
    <style>
      .cls-1 {
        font-family: TimesNewRomanPS-BoldMT, 'Times New Roman';
        font-size: 20.58px;
        font-weight: 700;
      }

      .cls-2 {
        letter-spacing: 0em;
      }

      .cls-3 {
        fill: #da2f47;
      }

      .cls-4 {
        fill: #292f33;
      }

      .cls-5 {
        letter-spacing: -.02em;
      }

      .cls-6 {
        fill: #67757f;
      }

      .cls-7 {
        fill: #664500;
      }

      .cls-8 {
        fill: #f4f7f9;
      }

      .cls-9 {
        font-family: BASQUIATRegular, BASQUIAT;
        font-size: 119.93px;
      }

      .cls-10 {
        letter-spacing: 0em;
      }

      .cls-11 {
        fill: #4289c1;
      }

      .cls-12 {
        filter: url(#luminosity-invert);
      }

      .cls-13 {
        fill: url(#Degradado_sin_nombre_14);
      }

      .cls-14 {
        letter-spacing: 0em;
      }

      .cls-15 {
        fill: #bb1a34;
      }

      .cls-16 {
        fill: #bdddf4;
      }

      .cls-17 {
        fill: none;
      }

      .cls-18 {
        mix-blend-mode: luminosity;
      }

      .cls-19 {
        mask: url(#mask-1);
      }

      .cls-20 {
        mask: url(#mask);
      }

      .cls-21 {
        fill: #fee7b8;
      }

      .cls-22 {
        filter: url(#luminosity-invert-2);
      }

      .cls-23 {
        font-family: Didot, Didot;
        font-size: 280.34px;
      }

      .cls-24 {
        letter-spacing: 0em;
      }

      .cls-25 {
        fill: #ff7892;
      }
    </style>
    <filter id="luminosity-invert" x="757.46" y="775.81" width="384.85" height="384.85" color-interpolation-filters="sRGB" filterUnits="userSpaceOnUse">
      <feColorMatrix result="cm" values="-1 0 0 0 1 0 -1 0 0 1 0 0 -1 0 1 0 0 0 1 0"/>
    </filter>
    <filter id="luminosity-invert-2" x="762.17" y="775.85" width="375.21" height="386.82" color-interpolation-filters="sRGB" filterUnits="userSpaceOnUse">
      <feColorMatrix result="cm" values="-1 0 0 0 1 0 -1 0 0 1 0 0 -1 0 1 0 0 0 1 0"/>
    </filter>
    <linearGradient id="Degradado_sin_nombre_14" data-name="Degradado sin nombre 14" x1="762.17" y1="969.26" x2="1137.38" y2="969.26" gradientUnits="userSpaceOnUse">
      <stop offset="0" stop-color="#fff"/>
      <stop offset=".16" stop-color="#fcfcfc"/>
      <stop offset=".25" stop-color="#f4f4f4"/>
      <stop offset=".32" stop-color="#e7e7e7"/>
      <stop offset=".38" stop-color="#d3d3d3"/>
      <stop offset=".43" stop-color="#bababa"/>
      <stop offset=".48" stop-color="#9b9b9b"/>
      <stop offset=".53" stop-color="#777"/>
      <stop offset=".57" stop-color="#4d4d4d"/>
      <stop offset=".61" stop-color="#1e1e1e"/>
      <stop offset=".61" stop-color="#1b1b1b"/>
      <stop offset=".71" stop-color="#0c0c0c"/>
      <stop offset=".84" stop-color="#030303"/>
      <stop offset="1" stop-color="#000"/>
    </linearGradient>
    <mask id="mask-1" x="762.17" y="775.85" width="375.21" height="386.82" maskUnits="userSpaceOnUse">
      <g class="cls-22">
        <rect class="cls-13" x="762.17" y="775.85" width="375.21" height="386.82"/>
      </g>
    </mask>
    <mask id="mask" x="757.46" y="775.81" width="384.85" height="384.85" maskUnits="userSpaceOnUse">
      <g class="cls-12">
        <g class="cls-19">
          <g class="cls-18">
            <path class="cls-11" d="m1051.73,799.75c15.19-4.03,28.66,9.43,24.63,24.61-1.77,6.67-7.07,11.96-13.74,13.73-15.19,4.03-28.66-9.43-24.63-24.61,1.77-6.67,7.07-11.96,13.74-13.73Z"/>
            <ellipse class="cls-11" cx="1096.99" cy="868.65" rx="29.8" ry="29.88" transform="translate(-255.5 1227.38) rotate(-53.23)"/>
            <ellipse class="cls-11" cx="1096.99" cy="828.86" rx="29.8" ry="29.88" transform="translate(-223.67 1211.32) rotate(-53.22)"/>
            <path class="cls-11" d="m832.77,799.75c15.19-4.03,28.66,9.43,24.63,24.61-1.77,6.67-7.07,11.96-13.74,13.73-15.19,4.03-28.66-9.43-24.63-24.61,1.77-6.67,7.07-11.96,13.74-13.73Z"/>
            <ellipse class="cls-11" cx="798.4" cy="868.65" rx="29.86" ry="29.84"/>
            <ellipse class="cls-11" cx="798.4" cy="828.86" rx="29.86" ry="29.84"/>
            <path class="cls-21" d="m1126.85,968.1c0,95.53-74.88,173.58-169.19,178.75-106.14,5.81-194.67-82.65-188.85-188.7,5.17-94.24,83.28-169.06,178.88-169.06s179.16,80.15,179.16,179.02h0Z"/>
            <ellipse class="cls-11" cx="1072.11" cy="833.84" rx="24.88" ry="24.86"/>
            <path class="cls-11" d="m1081.59,839.53c15.19-4.03,28.66,9.43,24.63,24.61-1.77,6.67-7.07,11.96-13.74,13.73-15.19,4.03-28.66-9.43-24.63-24.61,1.77-6.67,7.07-11.96,13.74-13.73Z"/>
            <ellipse class="cls-11" cx="823.28" cy="833.84" rx="24.88" ry="24.86"/>
            <path class="cls-11" d="m802.91,839.53c15.19-4.03,28.66,9.43,24.63,24.61-1.77,6.67-7.07,11.96-13.74,13.73-15.19,4.03-28.66-9.43-24.63-24.61,1.77-6.67,7.07-11.96,13.74-13.73Z"/>
            <ellipse class="cls-25" cx="837.52" cy="997.94" rx="39.81" ry="39.78"/>
            <ellipse class="cls-25" cx="1056.48" cy="997.94" rx="39.81" ry="39.78"/>
            <path class="cls-3" d="m1040.61,1024.08c-1.77-1.6-4.42-1.7-6.32-.29-.39.29-39.04,28.84-86.59,28.84s-86.21-28.55-86.59-28.84c-1.9-1.41-4.55-1.29-6.32.29-1.76,1.59-2.16,4.22-.94,6.25,1.28,2.14,32.02,67.06,93.85,67.06s92.57-64.92,93.85-67.06c1.22-2.04.84-4.65-.94-6.25Z"/>
            <path class="cls-17" d="m1040.61,1024.08c-1.77-1.6-4.42-1.7-6.32-.29-.39.29-39.04,28.84-86.59,28.84s-86.21-28.55-86.59-28.84c-1.9-1.41-4.55-1.29-6.32.29-1.76,1.59-2.16,4.22-.94,6.25,1.28,2.14,32.02,67.06,93.85,67.06s92.57-64.92,93.85-67.06c1.22-2.04.84-4.65-.94-6.25Z"/>
            <ellipse class="cls-7" cx="883" cy="903.46" rx="24.88" ry="34.81"/>
            <ellipse class="cls-7" cx="1022.35" cy="903.46" rx="24.88" ry="34.81"/>
            <ellipse class="cls-15" cx="952.67" cy="983.02" rx="34.84" ry="34.81"/>
            <g>
              <ellipse class="cls-8" cx="1021.92" cy="904.14" rx="60.01" ry="59.97"/>
              <path class="cls-4" d="m1081.94,1083.86v-174.91c0-4.02,3.15-8.28,7.06-9.17,6.05-1.37,11.41,3.18,11.41,8.98v175.3c0,5.79-5.35,10.34-11.4,8.97-3.92-.89-7.07-5.15-7.07-9.17Z"/>
              <path class="cls-6" d="m1091.18,890.3c-.47,0-.92.1-1.38.14-6.58-32.57-36.1-56.94-70.94-55.43-35.52,1.54-64.4,30.24-66.11,65.73-1.91,39.7,29.85,72.6,69.16,72.6,30.24,0,55.95-19.5,65.37-46.56,3.56.77,7.4.62,11.71-1.42,5.35-2.53,9.33-7.45,10.35-13.28,2.04-11.65-6.89-21.77-18.17-21.77Zm-69.26,64.58c-32.13,0-57.38-29.97-49.24-63.41,4.37-17.96,18.55-32.14,36.5-36.53,33.48-8.18,63.52,17.06,63.52,49.19,0,27.99-22.79,50.75-50.79,50.75Z"/>
              <path class="cls-16" d="m1049.54,861.59c-7.95-5.17-17.42-8.19-27.62-8.19-28.04,0-50.79,22.72-50.79,50.75,0,10.19,3.03,19.65,8.2,27.6l70.21-70.15Zm-49.29,88.39c6.58,3.11,13.91,4.91,21.67,4.91,28.04,0,50.79-22.72,50.79-50.75,0-7.76-1.8-15.08-4.91-21.65l-67.55,67.49Z"/>
            </g>
          </g>
        </g>
      </g>
    </mask>
  </defs>
  <g class="cls-20">
    <rect x="757.46" y="775.81" width="384.85" height="384.85"/>
  </g>
  <g>
    <g>
      <circle class="cls-11" cx="2150.54" cy="53.8" r="35.87"/>
      <circle class="cls-11" cx="2222.27" cy="143.47" r="53.8"/>
      <circle class="cls-11" cx="2222.27" cy="71.74" r="53.8"/>
      <circle class="cls-11" cx="1755.98" cy="53.8" r="35.87"/>
      <circle class="cls-11" cx="1684.25" cy="143.47" r="53.8"/>
      <circle class="cls-11" cx="1684.25" cy="71.74" r="53.8"/>
      <path class="cls-21" d="m2276.08,322.82c0,178.28-144.53,322.82-322.82,322.82s-322.82-144.53-322.82-322.82S1774.98,0,1953.26,0s322.82,144.53,322.82,322.82"/>
      <circle class="cls-11" cx="2177.44" cy="80.7" r="44.84"/>
      <circle class="cls-11" cx="2204.34" cy="125.54" r="35.87"/>
      <circle class="cls-11" cx="1729.08" cy="80.7" r="44.84"/>
      <circle class="cls-11" cx="1702.18" cy="125.54" r="35.87"/>
      <circle class="cls-25" cx="1754.73" cy="376.62" r="71.74"/>
      <circle class="cls-25" cx="2149.28" cy="376.62" r="71.74"/>
      <path class="cls-3" d="m2120.68,423.77c-3.19-2.89-7.96-3.07-11.39-.52-.7.52-70.34,52.01-156.03,52.01s-155.35-51.49-156.03-52.01c-3.43-2.55-8.2-2.33-11.39.52-3.17,2.87-3.89,7.6-1.69,11.26,2.31,3.86,57.69,120.93,169.1,120.93s166.81-117.07,169.1-120.93c2.21-3.68,1.51-8.39-1.69-11.26Z"/>
      <path class="cls-17" d="m2120.68,423.77c-3.19-2.89-7.96-3.07-11.39-.52-.7.52-70.34,52.01-156.03,52.01s-155.35-51.49-156.03-52.01c-3.43-2.55-8.2-2.33-11.39.52-3.17,2.87-3.89,7.6-1.69,11.26,2.31,3.86,57.69,120.93,169.1,120.93s166.81-117.07,169.1-120.93c2.21-3.68,1.51-8.39-1.69-11.26Z"/>
      <ellipse class="cls-7" cx="1836.69" cy="206.24" rx="44.84" ry="62.77"/>
      <ellipse class="cls-7" cx="2087.77" cy="206.24" rx="44.84" ry="62.77"/>
      <circle class="cls-15" cx="1962.23" cy="349.72" r="62.77"/>
    </g>
    <g>
      <circle class="cls-8" cx="2077.12" cy="209.91" r="94.97"/>
      <path class="cls-4" d="m2186.71,509.43c-8.07,0-14.61-6.54-14.61-14.61V217.22c0-8.07,6.54-14.61,14.61-14.61s14.61,6.54,14.61,14.61v277.61c-.01,8.06-6.54,14.6-14.61,14.6Z"/>
      <path class="cls-6" d="m2186.71,188c-.75,0-1.45.17-2.18.22-10.1-50.06-54.41-87.89-107.41-87.89-60.43,0-109.58,49.15-109.58,109.58s49.15,109.58,109.58,109.58c47.86,0,88.54-30.88,103.44-73.73,1.99.43,4.03.68,6.14.68,16.14,0,29.23-13.08,29.23-29.23s-13.08-29.21-29.21-29.21Zm-109.59,102.28c-44.31,0-80.35-36.04-80.35-80.37s36.06-80.37,80.35-80.37,80.37,36.04,80.37,80.37-36.06,80.37-80.37,80.37Z"/>
      <path class="cls-16" d="m2120.82,142.53c-12.58-8.18-27.57-12.97-43.7-12.97-44.38,0-80.37,35.97-80.37,80.37,0,16.13,4.8,31.12,12.97,43.7l111.1-111.1Zm-77.99,139.98c10.42,4.93,22.01,7.77,34.29,7.77,44.38,0,80.37-35.97,80.37-80.37,0-12.28-2.84-23.89-7.77-34.29l-106.89,106.89Z"/>
    </g>
  </g>
  <text class="cls-9" transform="translate(196.23 1146.46)"><tspan x="0" y="0">Cl</tspan><tspan class="cls-24" x="72.2" y="0">o</tspan><tspan class="cls-2" x="117.41" y="0">wn </tspan><tspan class="cls-14" x="235.3" y="0">W</tspan><tspan x="282.91" y="0">or</tspan><tspan class="cls-5" x="373.58" y="0">l</tspan><tspan class="cls-10" x="408.84" y="0">d</tspan></text>
  <text class="cls-23" transform="translate(0 1040.3)"><tspan x="0" y="0">NEWS</tspan></text>
  <text class="cls-1" transform="translate(666.62 1146.46)"><tspan x="0" y="0">Est. 313 000 B.C.</tspan></text>
</svg>